<?xml version="1.0" encoding="UTF-8"?>
<svg version="1.1" xmlns="http://www.w3.org/2000/svg" width="1200" height="1200">
<path d="M0 0 C396 0 792 0 1200 0 C1200 396 1200 792 1200 1200 C804 1200 408 1200 0 1200 C0 804 0 408 0 0 Z " fill="#FEFEFE" transform="translate(0,0)"/>
<path d="M0 0 C73.92 0 147.84 0 224 0 C224.04125 25.53375 224.0825 51.0675 224.125 77.375 C224.14320801 85.44888184 224.16141602 93.52276367 224.18017578 101.84130859 C224.18920898 111.67114258 224.18920898 111.67114258 224.19088745 116.26724243 C224.19275705 119.48968233 224.2002769 122.71205689 224.21115112 125.93447876 C224.22481908 130.03883932 224.22899168 134.14310419 224.22614455 138.2474854 C224.22674033 139.75756021 224.23073584 141.26763819 224.23843026 142.77769351 C224.2483093 144.81013563 224.24480235 146.84262995 224.24050903 148.87509155 C224.24235262 150.01627127 224.24419621 151.15745098 224.24609566 152.3332119 C224 155 224 155 222 157 C219.10882317 157.19793051 216.31331198 157.26916999 213.42089844 157.25396729 C212.07287958 157.25864726 212.07287958 157.25864726 210.69762802 157.26342177 C207.66814481 157.27143746 204.63885992 157.26506427 201.609375 157.25878906 C199.44486371 157.26149734 197.28035334 157.26505735 195.11584473 157.26940918 C189.22343197 157.27855487 183.33108896 157.27497996 177.43867493 157.26865101 C171.28430996 157.26360227 165.12995113 157.26827931 158.97558594 157.27142334 C148.63866092 157.27506628 138.30176444 157.2702553 127.96484375 157.26074219 C115.99854622 157.24985702 104.03231684 157.25338237 92.06602097 157.264395 C81.80870351 157.27345854 71.55140662 157.27475773 61.29408646 157.26951766 C55.16052381 157.26639282 49.02699323 157.26600267 42.89343262 157.27259064 C37.12823787 157.27834993 31.36313134 157.27439326 25.59794617 157.26280212 C23.47666063 157.26014793 21.35536773 157.26093347 19.23408508 157.26532745 C16.34898888 157.27075451 13.46417927 157.26398353 10.57910156 157.25396729 C9.30587351 157.26065945 9.30587351 157.26065945 8.00692368 157.26748681 C2.22830004 157.22830004 2.22830004 157.22830004 0 155 C-0.24609566 152.3332119 -0.24609566 152.3332119 -0.24050903 148.87509155 C-0.24326403 147.57087439 -0.24601902 146.26665722 -0.2488575 144.92291832 C-0.24176337 143.46342255 -0.23448757 142.00392766 -0.22705078 140.54443359 C-0.2264384 138.99228233 -0.2267046 137.44013052 -0.2277813 135.88797951 C-0.22823386 131.72152196 -0.21662026 127.55517869 -0.20256042 123.38874817 C-0.19119258 119.48287587 -0.19063539 115.57703173 -0.18920898 111.67114258 C-0.1787034 100.23907984 -0.15078124 88.80703849 -0.125 77.375 C-0.08375 51.84125 -0.0425 26.3075 0 0 Z " fill="#000000" transform="translate(488,452)"/>
<path d="M0 0 C0.84603963 -0.0055344 1.69207927 -0.01106879 2.56375647 -0.0167709 C5.39749914 -0.03037957 8.23036139 -0.01540709 11.06408691 -0.00050354 C13.09609857 -0.00428664 15.12810766 -0.0097866 17.16011047 -0.01687622 C22.67867862 -0.03084926 28.19693563 -0.01964794 33.71548653 -0.00316501 C39.48806128 0.01067516 45.26061778 0.00422659 51.03320312 0.0007019 C60.72763082 -0.00200103 70.42193476 0.01148262 80.11633301 0.03465271 C91.32775075 0.06126291 102.53896156 0.06300982 113.75040007 0.05126435 C124.53112151 0.04048876 135.31176803 0.04667193 146.09248352 0.06081963 C150.68249785 0.06658131 155.27245739 0.06649529 159.86247253 0.06175423 C165.26663245 0.05698532 170.67056549 0.0670827 176.07468224 0.08870888 C178.05924909 0.09427807 180.04383774 0.09474084 182.02840614 0.08975601 C184.73509171 0.08380951 187.44108217 0.09629615 190.14770508 0.11352539 C190.93515657 0.10751535 191.72260806 0.1015053 192.53392172 0.09531313 C197.0681258 0.14788436 199.96491342 0.70840319 203.57385254 3.50120544 C212.1224607 13.2371203 208.57385254 14.49904614 208.57385254 32.50120544 C133.99385254 32.50120544 59.41385254 32.50120544 -17.42614746 32.50120544 C-17.42614746 8.71765004 -17.42614746 8.71765004 -11.20278168 2.15753078 C-7.48416427 -0.06070892 -4.20553479 -0.05129737 0 0 Z " fill="#040404" transform="translate(504.4261474609375,410.49879455566406)"/>
<path d="M0 0 C12.21 0 24.42 0 37 0 C37 99 37 198 37 300 C24.79 300 12.58 300 0 300 C0 297.69 0 295.38 0 293 C9.9 293 19.8 293 30 293 C30 198.62 30 104.24 30 7 C20.1 7 10.2 7 0 7 C0 4.69 0 2.38 0 0 Z " fill="#000000" transform="translate(750,360)"/>
<path d="M0 0 C12.21 0 24.42 0 37 0 C37 2.31 37 4.62 37 7 C27.1 7 17.2 7 7 7 C7 101.38 7 195.76 7 293 C16.9 293 26.8 293 37 293 C37 295.31 37 297.62 37 300 C24.79 300 12.58 300 0 300 C0 201 0 102 0 0 Z " fill="#000000" transform="translate(413,360)"/>
<path d="M0 0 C3.91415855 2.10762383 6.59353839 4.25661528 9 8 C9.556875 7.236875 10.11375 6.47375 10.6875 5.6875 C14.03798819 1.79368941 16.3446185 0.1773623 21.5 -0.375 C25.3254654 0.03487129 27.02893058 0.59102479 30 3 C34.68638687 9.11833842 35.14983112 13.51638728 35.09765625 21.046875 C35.0962413 21.81807678 35.09482635 22.58927856 35.09336853 23.3838501 C35.08778534 25.83927338 35.07523595 28.29460442 35.0625 30.75 C35.05748283 32.41796743 35.0529203 34.08593629 35.04882812 35.75390625 C35.03782141 39.83597287 35.02056836 43.91797081 35 48 C37.64 48 40.28 48 43 48 C43.38218767 49.65614657 43.71395102 51.32457024 44 53 C42.12756019 54.87243981 39.06340482 54.17380392 36.5625 54.1875 C34.80099609 54.20876953 34.80099609 54.20876953 33.00390625 54.23046875 C30 54 30 54 28 52 C27.73498535 50.18519592 27.73498535 50.18519592 27.71289062 47.96508789 C27.69947632 47.13405045 27.68606201 46.303013 27.67224121 45.4467926 C27.66696411 44.54782761 27.66168701 43.64886261 27.65625 42.72265625 C27.6416272 41.80036728 27.62700439 40.87807831 27.61193848 39.92784119 C27.56532988 36.97277154 27.53119145 34.01777026 27.5 31.0625 C27.45892903 27.17813358 27.40526806 23.29424657 27.34375 19.41015625 C27.3384729 18.51321548 27.3331958 17.61627472 27.32775879 16.69215393 C27.31434448 15.85796432 27.30093018 15.02377472 27.28710938 14.16430664 C27.27981812 13.4308754 27.27252686 12.69744415 27.26501465 11.94178772 C27.09992176 9.67636824 27.09992176 9.67636824 25 7 C20.8936413 6.45765074 18.73415508 6.5431924 15.1875 8.75 C11.01449803 13.04223059 10.68203476 16.77601165 10.5859375 22.609375 C10.56657135 23.33618469 10.5472052 24.06299438 10.5272522 24.81182861 C10.46765729 27.12443448 10.42115242 29.43709067 10.375 31.75 C10.33680164 33.32163582 10.29774883 34.89325113 10.2578125 36.46484375 C10.16197257 40.30972842 10.07786805 44.15471107 10 48 C12.97 48 15.94 48 19 48 C19.495 49.98 19.495 49.98 20 52 C18 54 18 54 15.03125 54.265625 C13.8659375 54.26046875 12.700625 54.2553125 11.5 54.25 C10.3346875 54.25515625 9.169375 54.2603125 7.96875 54.265625 C5 54 5 54 3 52 C2.77816813 49.04884392 2.67461169 46.18437094 2.65625 43.23046875 C2.6416272 42.35731522 2.62700439 41.48416168 2.61193848 40.58454895 C2.56534026 37.78557936 2.53121138 34.98668097 2.5 32.1875 C2.4588073 28.51406209 2.40506314 24.8411197 2.34375 21.16796875 C2.3384729 20.32509811 2.3331958 19.48222748 2.32775879 18.61381531 C2.25615511 14.37557097 2.17232295 10.7715989 0 7 C-2.7568718 5.65072338 -2.7568718 5.65072338 -6 6 C-9.7436241 8.51974699 -12.42351667 10.75458176 -14 15 C-14.23505111 17.56792437 -14.37171528 20.03878418 -14.4140625 22.609375 C-14.43342865 23.33618469 -14.4527948 24.06299438 -14.4727478 24.81182861 C-14.53234271 27.12443448 -14.57884758 29.43709067 -14.625 31.75 C-14.66319836 33.32163582 -14.70225117 34.89325113 -14.7421875 36.46484375 C-14.83802743 40.30972842 -14.92213195 44.15471107 -15 48 C-12.69 48 -10.38 48 -8 48 C-7.67 49.65 -7.34 51.3 -7 53 C-9.45275141 54.2263757 -11.0505781 54.11415314 -13.7890625 54.09765625 C-14.73007812 54.09443359 -15.67109375 54.09121094 -16.640625 54.08789062 C-17.62546875 54.07951172 -18.6103125 54.07113281 -19.625 54.0625 C-21.11386719 54.05573242 -21.11386719 54.05573242 -22.6328125 54.04882812 C-25.0886016 54.03702145 -27.54427104 54.020554 -30 54 C-30.38218767 52.34385343 -30.71395102 50.67542976 -31 49 C-30.505 48.505 -30.505 48.505 -30 48 C-27.36 48 -24.72 48 -22 48 C-22 34.47 -22 20.94 -22 7 C-22.99 7.33 -23.98 7.66 -25 8 C-27.33299825 8.03954234 -29.66708189 8.04401732 -32 8 C-32 6.68 -32 5.36 -32 4 C-28.76117996 2.11517599 -26.03098646 1.61534069 -22.3125 1.3125 C-21.33925781 1.22613281 -20.36601563 1.13976562 -19.36328125 1.05078125 C-18.58339844 1.03402344 -17.80351563 1.01726563 -17 1 C-15.03177114 2.96822886 -15.33751619 6.34808709 -15 9 C-14.4225 8.071875 -13.845 7.14375 -13.25 6.1875 C-9.35685784 0.67221527 -6.89477588 -0.83212812 0 0 Z " fill="#141414" transform="translate(822,749)"/>
<path d="M0 0 C3.82944274 1.17364708 5.12496389 3.35553769 7.23046875 6.68359375 C7.23046875 7.34359375 7.23046875 8.00359375 7.23046875 8.68359375 C7.89046875 8.68359375 8.55046875 8.68359375 9.23046875 8.68359375 C9.43671875 8.12671875 9.64296875 7.56984375 9.85546875 6.99609375 C11.74645885 3.81579222 14.04117684 1.51852882 17.23046875 -0.31640625 C21.09224364 -0.85840974 23.35619625 -0.7027127 26.91796875 0.87109375 C30.48062685 3.6634474 32.79415735 6.37465956 34.23046875 10.68359375 C34.31565742 13.48785827 34.34635395 16.26655725 34.328125 19.0703125 C34.32671005 19.88732132 34.3252951 20.70433014 34.32383728 21.5460968 C34.31824169 24.15446643 34.30569004 26.76275009 34.29296875 29.37109375 C34.28795318 31.13997272 34.28339037 32.90885303 34.27929688 34.67773438 C34.26827371 39.01305394 34.25101213 43.34830927 34.23046875 47.68359375 C37.20046875 47.68359375 40.17046875 47.68359375 43.23046875 47.68359375 C43.72546875 49.66359375 43.72546875 49.66359375 44.23046875 51.68359375 C42.23046875 53.68359375 42.23046875 53.68359375 39.2265625 53.9140625 C38.05222656 53.89988281 36.87789063 53.88570312 35.66796875 53.87109375 C33.90259766 53.86142578 33.90259766 53.86142578 32.1015625 53.8515625 C29.23046875 53.68359375 29.23046875 53.68359375 28.23046875 52.68359375 C28.10714583 49.71391675 28.04429442 46.7639348 28.01953125 43.79296875 C27.99145347 41.95051209 27.96278895 40.10806429 27.93359375 38.265625 C27.89237559 35.35140312 27.85550273 32.43734509 27.82910156 29.52294922 C27.80145448 26.71677078 27.75557086 23.91135325 27.70703125 21.10546875 C27.70377838 20.23758728 27.70052551 19.36970581 27.69717407 18.4755249 C27.60152538 13.75705007 27.33842656 10.48983177 24.23046875 6.68359375 C21.93488407 5.42417658 21.93488407 5.42417658 19.23046875 5.68359375 C14.27272067 8.16246779 12.29354255 10.61585913 10.23046875 15.68359375 C9.73177867 19.35164441 9.73177867 19.35164441 9.71875 23.26953125 C9.7007988 23.971315 9.6828476 24.67309875 9.66435242 25.39614868 C9.61057828 27.61690428 9.57646182 29.83744915 9.54296875 32.05859375 C9.50976638 33.57294579 9.47527404 35.08727013 9.43945312 36.6015625 C9.35487294 40.29537049 9.28790525 43.98925254 9.23046875 47.68359375 C12.20046875 47.68359375 15.17046875 47.68359375 18.23046875 47.68359375 C18.61265642 49.33974032 18.94441977 51.00816399 19.23046875 52.68359375 C18.23046875 53.68359375 18.23046875 53.68359375 15.10546875 53.81640625 C13.82671875 53.81382812 12.54796875 53.81125 11.23046875 53.80859375 C9.95171875 53.81117188 8.67296875 53.81375 7.35546875 53.81640625 C4.23046875 53.68359375 4.23046875 53.68359375 3.23046875 52.68359375 C3.10715718 49.7983703 3.04429793 46.93342327 3.01953125 44.046875 C2.99144806 42.25454839 2.9627835 40.46223081 2.93359375 38.66992188 C2.89241969 35.83699942 2.85554481 33.00424292 2.82910156 30.17114258 C2.8014004 27.44186204 2.75551149 24.71335516 2.70703125 21.984375 C2.70377838 21.14352859 2.70052551 20.30268219 2.69717407 19.43635559 C2.59340132 14.44299379 1.89252013 11.06302633 -0.76953125 6.68359375 C-5.14211585 6.25490899 -7.08034006 6.1322408 -10.58203125 8.93359375 C-14.34041813 13.65842297 -15.08179008 17.08724009 -15.18359375 23.07421875 C-15.2029599 23.7788324 -15.22232605 24.48344604 -15.24227905 25.20941162 C-15.3018586 27.45068414 -15.34837248 29.69200864 -15.39453125 31.93359375 C-15.43273104 33.45705313 -15.47178394 34.98049137 -15.51171875 36.50390625 C-15.60754143 40.23027481 -15.69165232 43.9568021 -15.76953125 47.68359375 C-13.45953125 47.68359375 -11.14953125 47.68359375 -8.76953125 47.68359375 C-8.10953125 49.00359375 -7.44953125 50.32359375 -6.76953125 51.68359375 C-8.76953125 53.68359375 -8.76953125 53.68359375 -11.01611328 53.91064453 C-11.92731934 53.9001709 -12.83852539 53.88969727 -13.77734375 53.87890625 C-14.76347656 53.87246094 -15.74960938 53.86601563 -16.765625 53.859375 C-17.79816406 53.84261719 -18.83070313 53.82585938 -19.89453125 53.80859375 C-20.93480469 53.79957031 -21.97507813 53.79054688 -23.046875 53.78125 C-25.62132217 53.75763122 -28.19531337 53.72469524 -30.76953125 53.68359375 C-31.15171892 52.02744718 -31.48348227 50.35902351 -31.76953125 48.68359375 C-31.27453125 48.18859375 -31.27453125 48.18859375 -30.76953125 47.68359375 C-27.79953125 47.68359375 -24.82953125 47.68359375 -21.76953125 47.68359375 C-21.76953125 34.15359375 -21.76953125 20.62359375 -21.76953125 6.68359375 C-22.75953125 7.01359375 -23.74953125 7.34359375 -24.76953125 7.68359375 C-26.16392789 7.75024751 -27.56123 7.76897574 -28.95703125 7.74609375 C-30.84421875 7.71515625 -30.84421875 7.71515625 -32.76953125 7.68359375 C-32.43953125 6.03359375 -32.10953125 4.38359375 -31.76953125 2.68359375 C-26.54440846 1.21689262 -22.18810785 0.45781973 -16.76953125 0.68359375 C-16.10953125 2.66359375 -15.44953125 4.64359375 -14.76953125 6.68359375 C-14.00640625 5.89984375 -13.24328125 5.11609375 -12.45703125 4.30859375 C-8.04450317 -0.0013174 -5.89833517 -0.7793885 0 0 Z " fill="#0B0B0B" transform="translate(207.76953125,749.31640625)"/>
<path d="M0 0 C3.96045583 2.54033693 5.7980446 6.72274906 7.4375 11 C7.91923238 13.83631696 7.90993949 16.56720811 7.828125 19.4375 C7.82246521 20.20304199 7.81680542 20.96858398 7.81097412 21.75732422 C7.78880835 24.17222021 7.73865539 26.58556223 7.6875 29 C7.66740915 30.64971796 7.64916294 32.29945948 7.6328125 33.94921875 C7.58900943 37.96673305 7.52012602 41.98310426 7.4375 46 C10.0775 46 12.7175 46 15.4375 46 C16.4275 47.98 16.4275 47.98 17.4375 50 C14.79050384 52.64699616 13.53355591 52.25749767 9.84375 52.265625 C8.73128906 52.26820313 7.61882813 52.27078125 6.47265625 52.2734375 C5.30605469 52.26570312 4.13945313 52.25796875 2.9375 52.25 C1.77089844 52.25773438 0.60429688 52.26546875 -0.59765625 52.2734375 C-1.71011719 52.27085937 -2.82257812 52.26828125 -3.96875 52.265625 C-4.99291016 52.26336914 -6.01707031 52.26111328 -7.07226562 52.25878906 C-9.5625 52 -9.5625 52 -11.5625 50 C-11.2325 48.68 -10.9025 47.36 -10.5625 46 C-6.9325 46 -3.3025 46 0.4375 46 C0.4180582 40.96381253 0.3662785 35.92936727 0.28491211 30.89379883 C0.26175975 29.18198141 0.24734285 27.4700221 0.24194336 25.75805664 C0.23263297 23.29223502 0.19160221 20.82863626 0.14453125 18.36328125 C0.1484639 17.60163162 0.15239655 16.83998199 0.15644836 16.05525208 C0.04772261 12.06796302 -0.41220562 10.19149047 -2.90234375 7.01879883 C-7.17467972 3.77651303 -10.91747509 4.32305467 -16.1015625 4.5078125 C-21.76907921 5.31380246 -25.23533813 7.57481415 -29.12744141 11.63085938 C-31.12748843 14.93274035 -30.99796125 17.54724713 -31.07421875 21.390625 C-31.09216995 22.09523865 -31.11012115 22.79985229 -31.12861633 23.52581787 C-31.18261858 25.76715179 -31.21658088 28.00827405 -31.25 30.25 C-31.28318218 31.77346689 -31.31767269 33.29690589 -31.35351562 34.8203125 C-31.43833738 38.5466716 -31.50519724 42.27310463 -31.5625 46 C-28.9225 46 -26.2825 46 -23.5625 46 C-22.9025 47.32 -22.2425 48.64 -21.5625 50 C-24.13238681 52.56988681 -25.15160053 52.25706775 -28.71875 52.265625 C-30.25208984 52.26949219 -30.25208984 52.26949219 -31.81640625 52.2734375 C-32.88761719 52.26570312 -33.95882812 52.25796875 -35.0625 52.25 C-36.66931641 52.26160156 -36.66931641 52.26160156 -38.30859375 52.2734375 C-39.33082031 52.27085937 -40.35304688 52.26828125 -41.40625 52.265625 C-42.34662109 52.26336914 -43.28699219 52.26111328 -44.25585938 52.25878906 C-46.5625 52 -46.5625 52 -48.5625 50 C-48.2325 48.68 -47.9025 47.36 -47.5625 46 C-44.5925 46 -41.6225 46 -38.5625 46 C-38.5625 32.47 -38.5625 18.94 -38.5625 5 C-39.5525 5.33 -40.5425 5.66 -41.5625 6 C-43.89549825 6.03954234 -46.22958189 6.04401732 -48.5625 6 C-48.8925 4.68 -49.2225 3.36 -49.5625 2 C-44.36603709 -0.05123536 -39.13018737 -0.86369127 -33.5625 -1 C-31.59427114 0.96822886 -31.90001619 4.34808709 -31.5625 7 C-31.13839844 6.60167969 -30.71429687 6.20335937 -30.27734375 5.79296875 C-21.95117564 -1.72803145 -10.71518173 -5.93950149 0 0 Z " fill="#151515" transform="translate(756.5625,751)"/>
<path d="M0 0 C2 2 2 2 2.1953125 4.8203125 C2.17210937 5.91085937 2.14890625 7.00140625 2.125 8.125 C2.10695313 9.22070312 2.08890625 10.31640625 2.0703125 11.4453125 C2.04710937 12.28835938 2.02390625 13.13140625 2 14 C0.34385343 14.38218767 -1.32457024 14.71395102 -3 15 C-4 14 -4 14 -4.09765625 12.15234375 C-4.06510417 10.1015625 -4.03255208 8.05078125 -4 6 C-13.2170917 7.19219724 -13.2170917 7.19219724 -21 12 C-22.76714543 15.60869699 -23.33669665 18.82430366 -23.625 22.8125 C-23.74875 24.524375 -23.8725 26.23625 -24 28 C-16.74 28 -9.48 28 -2 28 C-1.505 29.98 -1.505 29.98 -1 32 C-2 33 -2 33 -4.13305664 33.11352539 C-5.50772095 33.10567017 -5.50772095 33.10567017 -6.91015625 33.09765625 C-7.800979 33.09515869 -8.69180176 33.09266113 -9.60961914 33.09008789 C-10.74906982 33.08098389 -11.88852051 33.07187988 -13.0625 33.0625 C-16.671875 33.041875 -20.28125 33.02125 -24 33 C-24 46.2 -24 59.4 -24 73 C-15.75 73 -7.5 73 1 73 C1.33 74.65 1.66 76.3 2 78 C1 79 1 79 -0.90455627 79.12025452 C-1.73728561 79.11803391 -2.57001495 79.11581329 -3.42797852 79.11352539 C-4.36887833 79.11344986 -5.30977814 79.11337433 -6.27919006 79.11329651 C-7.30209641 79.10813522 -8.32500275 79.10297394 -9.37890625 79.09765625 C-10.42070541 79.0962413 -11.46250458 79.09482635 -12.53587341 79.09336853 C-15.87811094 79.0877508 -19.22028257 79.0751953 -22.5625 79.0625 C-24.82226466 79.05748728 -27.08203037 79.05292398 -29.34179688 79.04882812 C-34.89455391 79.03777561 -40.44727225 79.02102024 -46 79 C-46.38218767 77.34385343 -46.71395102 75.67542976 -47 74 C-46.505 73.505 -46.505 73.505 -46 73 C-40.72 73 -35.44 73 -30 73 C-30 59.8 -30 46.6 -30 33 C-34.95 33 -39.9 33 -45 33 C-45.33 31.68 -45.66 30.36 -46 29 C-45 28 -45 28 -41.62109375 27.90234375 C-40.22652923 27.90901631 -38.83198257 27.92097468 -37.4375 27.9375 C-36.72658203 27.94201172 -36.01566406 27.94652344 -35.28320312 27.95117188 C-33.52209987 27.96299136 -31.76103964 27.98092737 -30 28 C-30.04640625 27.2265625 -30.0928125 26.453125 -30.140625 25.65625 C-30.37265923 18.96040495 -30.44454185 13.32394317 -26 8 C-18.48035555 1.49652372 -9.90978495 -1.23192939 0 0 Z " fill="#0A0A0A" transform="translate(589,724)"/>
<path d="M0 0 C0.66 0.66 1.32 1.32 2 2 C2.66 0.35 3.32 -1.3 4 -3 C5.32 -2.67 6.64 -2.34 8 -2 C8 3.61 8 9.22 8 15 C6.68 15.33 5.36 15.66 4 16 C3.82726562 15.39671875 3.65453125 14.7934375 3.4765625 14.171875 C2.18720306 10.50488945 1.11780527 7.77716024 -2.140625 5.51171875 C-10.37290615 1.95216322 -18.64465487 1.86674558 -27 5 C-29.36410488 6.93731528 -29.36410488 6.93731528 -29.3125 10.4375 C-29.32175896 13.85305216 -29.32175896 13.85305216 -27.8125 15.62890625 C-25.49382647 17.38290282 -23.5214549 17.85574503 -20.6875 18.5 C-19.62660156 18.74878906 -18.56570313 18.99757813 -17.47265625 19.25390625 C-15.08986154 19.76584527 -12.70131134 20.25149209 -10.30859375 20.71484375 C2.92603793 23.31124551 2.92603793 23.31124551 7.875 29.25 C9.90482621 34.21179739 9.58050478 38.32298619 7.875 43.25 C4.48010176 48.22918408 0.12084824 50.45206037 -5.73828125 51.6796875 C-15.15257206 53.01297221 -23.40463756 52.00761857 -31.28515625 46.36328125 C-32.13400391 45.68845703 -32.13400391 45.68845703 -33 45 C-33.495 47.475 -33.495 47.475 -34 50 C-35.32 50 -36.64 50 -38 50 C-38 43.73 -38 37.46 -38 31 C-36.02 30.505 -36.02 30.505 -34 30 C-33.86464844 30.59167969 -33.72929687 31.18335938 -33.58984375 31.79296875 C-32.10118941 37.25731072 -30.53467747 40.0833616 -25.71875 43.125 C-21.68578231 45.17814719 -18.15205782 45.19700822 -13.6875 45.25 C-11.74423828 45.28867187 -11.74423828 45.28867187 -9.76171875 45.328125 C-5.64210719 44.96878194 -2.0148456 44.0148456 1 41 C1.63170439 35.9331298 1.63170439 35.9331298 -0.15991211 31.46606445 C-2.60714693 29.51626412 -4.70898205 29.15650656 -7.76953125 28.53515625 C-8.90583984 28.29216797 -10.04214844 28.04917969 -11.21289062 27.79882812 C-13.6006156 27.31040039 -15.98863433 26.82340639 -18.37695312 26.33789062 C-25.61644269 24.78686375 -30.9983754 23.60194952 -35.875 17.75 C-37.38425372 14.06071313 -37.89598191 10.8703481 -37 7 C-34.57935661 2.68232756 -30.96906581 -0.87758959 -26.23828125 -2.56640625 C-17.52044823 -4.25520113 -8.14047859 -3.6665792 0 0 Z " fill="#0A0A0A" transform="translate(403,752)"/>
<path d="M0 0 C0.66 0.66 1.32 1.32 2 2 C2.66 0.35 3.32 -1.3 4 -3 C5.32 -2.67 6.64 -2.34 8 -2 C8 3.61 8 9.22 8 15 C6.68 15.33 5.36 15.66 4 16 C3.82726562 15.39671875 3.65453125 14.7934375 3.4765625 14.171875 C2.18720306 10.50488945 1.11780527 7.77716024 -2.140625 5.51171875 C-10.37290615 1.95216322 -18.64465487 1.86674558 -27 5 C-29.21370051 6.78657757 -29.21370051 6.78657757 -29.1953125 9.1640625 C-29.17210937 9.97617187 -29.14890625 10.78828125 -29.125 11.625 C-29.09792969 12.85089844 -29.09792969 12.85089844 -29.0703125 14.1015625 C-29.04710937 14.72804688 -29.02390625 15.35453125 -29 16 C-28.03126953 16.23783203 -28.03126953 16.23783203 -27.04296875 16.48046875 C-24.37824929 17.14026933 -21.71681273 17.81230098 -19.05566406 18.48632812 C-16.7562501 19.06090853 -14.45231792 19.61548653 -12.1484375 20.171875 C-10.45298223 20.59317586 -8.75766948 21.01505068 -7.0625 21.4375 C-6.24612061 21.63045654 -5.42974121 21.82341309 -4.58862305 22.0222168 C0.13461045 23.21776852 3.43426683 24.49009044 7 28 C8.33827901 30.67655801 8.20578556 32.82434052 8.25 35.8125 C8.27578125 36.85019531 8.3015625 37.88789062 8.328125 38.95703125 C7.95009441 42.46281491 7.1641347 44.23125117 5 47 C2.87890625 48.328125 2.87890625 48.328125 0.5625 49.25 C-0.58025391 49.72179687 -0.58025391 49.72179687 -1.74609375 50.203125 C-10.45798598 53.28323941 -18.47239167 52.76697118 -26.90625 49.0703125 C-29 48 -29 48 -32 46 C-32.66 47.32 -33.32 48.64 -34 50 C-35.32 50 -36.64 50 -38 50 C-38 43.73 -38 37.46 -38 31 C-36.02 30.505 -36.02 30.505 -34 30 C-33.84144531 30.60328125 -33.68289063 31.2065625 -33.51953125 31.828125 C-32.00566539 37.01374288 -30.84002619 40.11903203 -26 43 C-21.79149199 45.06314069 -18.22763837 45.29840593 -13.5625 45.3125 C-12.28503906 45.32925781 -11.00757813 45.34601562 -9.69140625 45.36328125 C-5.75961766 44.97634333 -3.34082063 44.07100646 0 42 C1.52491998 38.95016004 1.23562548 36.3576631 1 33 C-1.33436607 29.66141795 -4.08235347 29.31922597 -7.953125 28.60546875 C-9.13003906 28.37150391 -10.30695313 28.13753906 -11.51953125 27.89648438 C-13.98929502 27.42709995 -16.46065637 26.96603847 -18.93359375 26.51367188 C-25.83891667 25.12432392 -31.54797264 23.80414564 -36 18 C-37.5613833 13.3158501 -37.64153524 8.97042966 -36.125 4.3125 C-26.97454257 -5.64535073 -11.67105599 -5.25679795 0 0 Z " fill="#090909" transform="translate(491,752)"/>
<path d="M0 0 C2.05177307 2.05177307 1.18536356 6.3718168 1.2109375 9.19921875 C1.23902199 10.90039998 1.26768655 12.60157172 1.296875 14.30273438 C1.33803761 16.99079972 1.37491331 19.67869083 1.40136719 22.36694336 C1.42908372 24.95724468 1.47497327 27.54673338 1.5234375 30.13671875 C1.52669037 30.9338176 1.52994324 31.73091644 1.53329468 32.5521698 C1.63944296 37.40327525 2.29844477 40.81000323 5 45 C9.71851469 48.14567646 14.48086199 47.66310032 20 47 C25.40508393 45.17651066 30.02717605 43.01883849 33 38 C33.50537154 34.51684494 33.50537154 34.51684494 33.51171875 30.609375 C33.52966995 29.90476135 33.54762115 29.20014771 33.56611633 28.47418213 C33.62011858 26.23284821 33.65408088 23.99172595 33.6875 21.75 C33.72068218 20.22653311 33.75517269 18.70309411 33.79101562 17.1796875 C33.87583738 13.4533284 33.94269724 9.72689537 34 6 C30.7 6.33 27.4 6.66 24 7 C23.505 5.02 23.505 5.02 23 3 C28.92806741 0.59672943 33.0613053 0.63079043 40 0 C40 15.51 40 31.02 40 47 C42.475 46.505 42.475 46.505 45 46 C47.33301986 45.96175377 49.66711508 45.95425716 52 46 C52.495 47.98 52.495 47.98 53 50 C47.12116651 52.61281488 41.29268272 52.18328202 35 52 C34.34 50.02 33.68 48.04 33 46 C32.41992188 46.40992188 31.83984375 46.81984375 31.2421875 47.2421875 C24.0337763 52.21432592 17.91261663 55.20849039 9 54 C3.08360264 52.13389617 -0.47702288 49.01757347 -4 44 C-5.23180134 40.30459598 -5.12412112 36.89696622 -5.09765625 33.05078125 C-5.0962413 32.27816452 -5.09482635 31.50554779 -5.09336853 30.70951843 C-5.08777466 28.24380611 -5.07522333 25.77818485 -5.0625 23.3125 C-5.05748421 21.63997527 -5.05292144 19.96744912 -5.04882812 18.29492188 C-5.03780724 14.19657954 -5.02054684 10.09830521 -5 6 C-5.99 6.33 -6.98 6.66 -8 7 C-10.33299825 7.03954234 -12.66708189 7.04401732 -15 7 C-15.33 5.68 -15.66 4.36 -16 3 C-10.50098677 0.90513782 -5.90866947 -0.49238912 0 0 Z " fill="#070707" transform="translate(634,750)"/>
<path d="M0 0 C1 1 1 1 1.12025452 2.90455627 C1.11803391 3.73728561 1.11581329 4.57001495 1.11352539 5.42797852 C1.11344986 6.36887833 1.11337433 7.30977814 1.11329651 8.27919006 C1.10813522 9.30209641 1.10297394 10.32500275 1.09765625 11.37890625 C1.0962413 12.42070541 1.09482635 13.46250458 1.09336853 14.53587341 C1.0877508 17.87811094 1.0751953 21.22028257 1.0625 24.5625 C1.05748728 26.82226466 1.05292398 29.08203037 1.04882812 31.34179688 C1.03862456 36.89457734 1.01905264 42.44721452 1 48 C8.59 48 16.18 48 24 48 C24.495 49.98 24.495 49.98 25 52 C22.42440872 54.57559128 21.4268332 54.25278679 17.84765625 54.25878906 C16.77314209 54.26509338 15.69862793 54.27139771 14.59155273 54.27789307 C13.42696533 54.2738446 12.26237793 54.26979614 11.0625 54.265625 C9.87148682 54.26753845 8.68047363 54.2694519 7.45336914 54.27142334 C4.93147572 54.2727863 2.40957531 54.26908216 -0.11230469 54.26074219 C-3.98388349 54.25004453 -7.85499822 54.26063406 -11.7265625 54.2734375 C-14.17187603 54.27211593 -16.61718927 54.26955358 -19.0625 54.265625 C-20.8093811 54.27169769 -20.8093811 54.27169769 -22.59155273 54.27789307 C-23.66606689 54.27158875 -24.74058105 54.26528442 -25.84765625 54.25878906 C-27.2709021 54.25640228 -27.2709021 54.25640228 -28.72290039 54.25396729 C-31 54 -31 54 -33 52 C-32.67 50.68 -32.34 49.36 -32 48 C-23.42 48 -14.84 48 -6 48 C-6 34.14 -6 20.28 -6 6 C-13.92 7.485 -13.92 7.485 -22 9 C-24.64 9 -27.28 9 -30 9 C-30.625 7.125 -30.625 7.125 -31 5 C-28.70053631 2.70053631 -28.09057484 2.69045565 -24.97265625 2.40234375 C-23.78446289 2.28342773 -23.78446289 2.28342773 -22.57226562 2.16210938 C-21.32993164 2.05092773 -21.32993164 2.05092773 -20.0625 1.9375 C-18.42810558 1.78287785 -16.79397463 1.62543841 -15.16015625 1.46484375 C-14.43449463 1.399021 -13.70883301 1.33319824 -12.96118164 1.26538086 C-2.91502516 -0.09403307 -2.91502516 -0.09403307 0 0 Z " fill="#171717" transform="translate(309,749)"/>
<path d="M0 0 C1 1 1 1 1.12025452 2.90455627 C1.11803391 3.73728561 1.11581329 4.57001495 1.11352539 5.42797852 C1.11344986 6.36887833 1.11337433 7.30977814 1.11329651 8.27919006 C1.10813522 9.30209641 1.10297394 10.32500275 1.09765625 11.37890625 C1.0962413 12.42070541 1.09482635 13.46250458 1.09336853 14.53587341 C1.0877508 17.87811094 1.0751953 21.22028257 1.0625 24.5625 C1.05748728 26.82226466 1.05292398 29.08203037 1.04882812 31.34179688 C1.03862456 36.89457734 1.01905264 42.44721452 1 48 C8.92 48 16.84 48 25 48 C25.495 49.98 25.495 49.98 26 52 C24 54 24 54 21.67147827 54.24050903 C20.6988504 54.23606781 19.72622253 54.23162659 18.72412109 54.22705078 C17.6231308 54.22689972 16.5221405 54.22674866 15.38778687 54.22659302 C14.19505157 54.21627045 13.00231628 54.20594788 11.7734375 54.1953125 C10.55548492 54.1924826 9.33753235 54.18965271 8.08267212 54.18673706 C4.18001617 54.17551256 0.27758697 54.15040372 -3.625 54.125 C-6.26562169 54.11497314 -8.90624697 54.10584678 -11.546875 54.09765625 C-18.0313278 54.07556581 -24.5156477 54.04206592 -31 54 C-31.38218767 52.34385343 -31.71395102 50.67542976 -32 49 C-31 48 -31 48 -28.49975586 47.88647461 C-27.41573486 47.89171143 -26.33171387 47.89694824 -25.21484375 47.90234375 C-24.16159912 47.90484131 -23.10835449 47.90733887 -22.02319336 47.90991211 C-20.67491455 47.91901611 -19.32663574 47.92812012 -17.9375 47.9375 C-13.668125 47.958125 -9.39875 47.97875 -5 48 C-5 34.14 -5 20.28 -5 6 C-12.92 7.485 -12.92 7.485 -21 9 C-23.64 9 -26.28 9 -29 9 C-29.33 7.35 -29.66 5.7 -30 4 C-26.12768431 2.06384215 -21.5058027 2.00766844 -17.25 1.4375 C-16.26 1.29892578 -15.27 1.16035156 -14.25 1.01757812 C-4.57433679 -0.29536281 -4.57433679 -0.29536281 0 0 Z " fill="#0E0E0E" transform="translate(923,749)"/>
<path d="M0 0 C2.28810234 0.91412051 3.49364748 1.92232732 5.2210083 3.67164612 C6.12148895 4.57246666 6.12148895 4.57246666 7.04016113 5.4914856 C7.67572937 6.14253769 8.31129761 6.79358978 8.96612549 7.46437073 C9.62634705 8.12883713 10.2865686 8.79330353 10.96679688 9.47790527 C13.07267689 11.60057011 15.16788376 13.73343053 17.26300049 15.86671448 C18.68939281 17.30815381 20.11646819 18.74891756 21.54425049 20.1889801 C25.04180642 23.7196028 28.52982613 27.25940501 32.01300049 30.80421448 C30.21909677 34.66906351 27.75116964 37.33982768 24.74346924 40.30421448 C24.22545242 40.82177307 23.70743561 41.33933167 23.17372131 41.87257385 C22.07913745 42.96414364 20.98213114 44.05328899 19.88287354 45.14015198 C18.21150742 46.79332734 16.54821723 48.4542984 14.88604736 50.11671448 C13.8181572 51.17968607 12.74981236 52.24220112 11.68096924 53.30421448 C11.18807907 53.79599182 10.6951889 54.28776917 10.18736267 54.79444885 C2.24208062 62.63271492 2.24208062 62.63271492 -1.67449951 63.17921448 C-3.98699951 62.80421448 -3.98699951 62.80421448 -5.98699951 60.80421448 C-5.87130205 55.9589294 -3.16787794 53.45723938 0.14190674 50.28468323 C0.65100082 49.78124893 1.16009491 49.27781464 1.68461609 48.75912476 C3.3057326 47.16031982 4.94022183 45.57601842 6.57550049 43.99171448 C7.67992932 42.90735734 8.78345586 41.8220804 9.88604736 40.7358551 C12.58469497 38.08120535 15.29541959 35.43947322 18.01300049 32.80421448 C16.1653655 28.77672499 13.48567154 26.0908735 10.32550049 23.05421448 C6.13568072 18.95474123 2.11245835 14.8020827 -1.68231201 10.32765198 C-2.72971932 9.10463146 -3.84839483 7.94281916 -4.98699951 6.80421448 C-5.29949951 4.30421448 -5.29949951 4.30421448 -4.98699951 1.80421448 C-1.98699951 -0.19578552 -1.98699951 -0.19578552 0 0 Z " fill="#F6F6F6" transform="translate(555.9869995117188,487.19578552246094)"/>
<path d="M0 0 C1.27479721 -0.00637985 2.54959442 -0.0127597 3.86302185 -0.01933289 C5.26553306 -0.02086144 6.66804478 -0.02197547 8.07055664 -0.02270508 C9.49923232 -0.02591598 10.92790767 -0.02927992 12.35658264 -0.03279114 C15.35524254 -0.03878872 18.35387359 -0.0406304 21.35253906 -0.04003906 C25.20079238 -0.03993742 29.04886129 -0.0535893 32.89707088 -0.07081127 C35.84897211 -0.08191339 38.80082852 -0.08395882 41.75274849 -0.08342934 C43.17176512 -0.08461217 44.59078281 -0.08905087 46.00977898 -0.0967617 C47.99217238 -0.10652487 49.97461955 -0.10242885 51.95703125 -0.09765625 C53.6512748 -0.09979378 53.6512748 -0.09979378 55.37974548 -0.10197449 C58.04321289 0.14526367 58.04321289 0.14526367 60.04321289 2.14526367 C59.7134981 5.4424116 59.42052899 6.76794757 57.04321289 9.14526367 C54.50709534 9.39923096 54.50709534 9.39923096 51.26416016 9.40405273 C49.44701256 9.41350922 49.44701256 9.41350922 47.59315491 9.42315674 C45.6213047 9.41708405 45.6213047 9.41708405 43.60961914 9.41088867 C42.25202871 9.41223558 40.89443875 9.41417632 39.53684998 9.41668701 C36.68955906 9.41963809 33.84239354 9.41534192 30.99511719 9.40600586 C27.34538295 9.39462204 23.6959432 9.40116389 20.04621983 9.41315079 C17.241814 9.42037915 14.43747793 9.41807681 11.63306999 9.4128952 C9.63278386 9.41091164 7.63249501 9.416987 5.63221741 9.42315674 C4.41763351 9.41685242 3.20304962 9.4105481 1.95166016 9.40405273 C0.88069595 9.40246155 -0.19026825 9.40087036 -1.29368591 9.39923096 C-3.95678711 9.14526367 -3.95678711 9.14526367 -6.95678711 7.14526367 C-7.20678711 4.08276367 -7.20678711 4.08276367 -6.95678711 1.14526367 C-5.15633754 -0.6551859 -2.427553 0.00819823 0 0 Z " fill="#F1F1F1" transform="translate(593.956787109375,541.854736328125)"/>
<path d="M0 0 C2.4375 0.75 2.4375 0.75 4.4375 2.75 C4.0625 6.375 4.0625 6.375 3.4375 9.75 C-2.94957103 11.07561852 -2.94957103 11.07561852 -5.5625 9.6875 C-7.07889353 6.74948754 -6.48543717 4.84843192 -5.5625 1.75 C-2.5625 -0.25 -2.5625 -0.25 0 0 Z " fill="#0F0F0F" transform="translate(920.5625,725.25)"/>
<path d="M0 0 C2.4375 0.8125 2.4375 0.8125 4.4375 2.8125 C4.6875 5.8125 4.6875 5.8125 4.4375 8.8125 C2.4375 10.8125 2.4375 10.8125 -0.5625 11.0625 C-3.5625 10.8125 -3.5625 10.8125 -5.5625 8.8125 C-5.89911952 5.6482765 -6.06193411 3.62736618 -4.375 0.875 C-2.5625 -0.1875 -2.5625 -0.1875 0 0 Z " fill="#0A0A0A" transform="translate(305.5625,725.1875)"/>
</svg>
